# xmcd
#
# Track frame offsets: 
#        150
#        16733
#        29513
#        47524
#        65723
#        88025
#        111414
#        126207
#        142797
#        157520
#        170753
#        181185
#        197037
#        208633
#
# Disc length: 2969 seconds
#
# Revision: 3
# Processed by: cddbd v1.5.2PL0 Copyright (c) Steve Scherf et al.
# Submitted via: ExactAudioCopy v1.1
#
DISCID=b80b970e
DTITLE=Mick Clarke - New Mountain
DYEAR=2000
DGENRE=Electric Blues
TTITLE0=Restless
TTITLE1=Honey Do
TTITLE2=See See Baby
TTITLE3=Bed Of Nails
TTITLE4=London Town
TTITLE5=You Gonna Miss Me
TTITLE6=Please Believe Me
TTITLE7=New Mountain
TTITLE8=Bromley City Limits
TTITLE9=The Howlin' Wolf
TTITLE10=Singapore Strut
TTITLE11=Gettin' Round To It
TTITLE12=Save The World
TTITLE13=I Should've Waited
EXTD=Burnside Records
EXTT0=
EXTT1=
EXTT2=
EXTT3=
EXTT4=
EXTT5=
EXTT6=
EXTT7=
EXTT8=
EXTT9=
EXTT10=
EXTT11=
EXTT12=
EXTT13=
PLAYORDER=
